<svg xmlns="http://www.w3.org/2000/svg" width="152" height="45" viewBox="0 0 152 45" fill="none"><g clip-path="url(#clip0)"><path d="M146.257 -7.62939e-05H5.62072C2.52396 -7.62939e-05 -0.00744629 2.53133 -0.00744629 5.62809V39.3802C-0.00744629 42.477 2.52396 45.0084 5.62072 45.0084H146.257C149.354 45.0084 151.885 42.477 151.885 39.3802V5.62809C151.885 2.53133 149.354 -7.62939e-05 146.257 -7.62939e-05ZM146.257 0.902792C148.865 0.902792 150.983 3.02074 150.983 5.62809V39.3802C150.983 41.9875 148.865 44.1055 146.257 44.1055H5.62072C3.01337 44.1055 0.895416 41.9875 0.895416 39.3802V5.62809C0.895416 3.02074 3.01337 0.902792 5.62072 0.902792H146.257Z" fill="black"></path><path d="M34.5453 21.787C34.5115 18.1755 37.4986 16.4204 37.6336 16.3444C35.9376 13.889 33.3218 13.543 32.402 13.5093C30.2082 13.2814 28.0649 14.8256 26.9511 14.8256C25.8119 14.8256 24.0821 13.5346 22.2258 13.5683C19.8378 13.6105 17.5933 14.9859 16.3698 17.146C13.8384 21.5338 15.7285 27.9805 18.1502 31.5329C19.3737 33.2627 20.7829 35.2119 22.6477 35.1444C24.4619 35.0769 25.1453 33.9883 27.3308 33.9883C29.5078 33.9883 30.1406 35.1444 32.0392 35.1106C33.9968 35.0769 35.2119 33.3639 36.3932 31.6088C37.7939 29.6259 38.3593 27.6598 38.3762 27.5586C38.3255 27.5333 34.5875 26.1072 34.5453 21.787Z" fill="black"></path><path d="M30.9676 11.1888C31.9464 9.96529 32.613 8.30299 32.4274 6.61539C31.0182 6.67445 29.2462 7.5942 28.2252 8.7924C27.3308 9.84715 26.5208 11.5769 26.7233 13.1971C28.3181 13.3152 29.9466 12.387 30.9676 11.1888Z" fill="black"></path><path d="M60.8719 34.8912H58.3321L56.9398 30.5203H52.1048L50.7885 34.8912H48.3162L53.1005 20.0065H56.0623L60.8719 34.8912ZM56.5263 28.6893L55.2691 24.8078C55.1341 24.4027 54.8894 23.4746 54.5265 22.0064H54.4759C54.324 22.6392 54.0962 23.5758 53.7671 24.8078L52.5267 28.6893H56.5263Z" fill="black"></path><path d="M73.183 29.3981C73.183 31.2207 72.6852 32.6636 71.6895 33.7183C70.8035 34.6634 69.6897 35.1275 68.3818 35.1275C66.9642 35.1275 65.9432 34.6212 65.3188 33.6086V39.2452H62.9308V27.6851C62.9308 26.5376 62.8971 25.3647 62.838 24.1581H64.9307L65.0656 25.8625H65.1078C65.901 24.5799 67.1161 23.9387 68.7278 23.9387C70.0019 23.9387 71.0482 24.4449 71.892 25.4406C72.7611 26.4448 73.183 27.7611 73.183 29.3981ZM70.7529 29.4824C70.7529 28.4361 70.5251 27.5755 70.0441 26.9004C69.5294 26.1916 68.8374 25.8457 67.9683 25.8457C67.3861 25.8457 66.8461 26.0482 66.3651 26.4279C65.8926 26.8245 65.5719 27.3223 65.4285 27.9636C65.361 28.2589 65.3188 28.4952 65.3188 28.6893V30.4866C65.3188 31.2629 65.5635 31.9295 66.036 32.4611C66.5086 32.9927 67.133 33.2711 67.9008 33.2711C68.7953 33.2711 69.4956 32.9167 69.9935 32.2332C70.4997 31.5244 70.7529 30.6216 70.7529 29.4824Z" fill="black"></path><path d="M85.5195 29.3981C85.5195 31.2207 85.0216 32.6636 84.0259 33.7183C83.1399 34.6634 82.0261 35.1275 80.7182 35.1275C79.3006 35.1275 78.2796 34.6212 77.6552 33.6086V39.2452H75.2673V27.6851C75.2673 26.5376 75.2335 25.3647 75.1744 24.1581H77.2671L77.4021 25.8625H77.4443C78.2374 24.5799 79.4525 23.9387 81.0642 23.9387C82.3383 23.9387 83.3847 24.4449 84.2285 25.4406C85.0976 26.4448 85.5195 27.7611 85.5195 29.3981ZM83.0893 29.4824C83.0893 28.4361 82.8615 27.5755 82.3805 26.9004C81.8658 26.1916 81.1739 25.8457 80.3048 25.8457C79.7226 25.8457 79.1825 26.0482 78.7015 26.4279C78.229 26.8245 77.9168 27.3223 77.7649 27.9636C77.6974 28.2589 77.6552 28.4952 77.6552 28.6893V30.4866C77.6552 31.2629 77.8999 31.9295 78.3725 32.4611C78.845 32.9927 79.4694 33.2711 80.2373 33.2711C81.1317 33.2711 81.8405 32.9167 82.3299 32.2332C82.8446 31.5244 83.0893 30.6216 83.0893 29.4824Z" fill="black"></path><path d="M99.3241 30.7228C99.3241 31.997 98.8768 33.018 98.0077 33.8196C97.0373 34.6887 95.6873 35.119 93.9575 35.119C92.3543 35.119 91.0717 34.8069 90.1097 34.1909L90.6667 32.2079C91.713 32.8239 92.8605 33.1361 94.1178 33.1361C95.0122 33.1361 95.721 32.9336 96.2104 32.5286C96.7167 32.1236 96.9699 31.5835 96.9699 30.9085C96.9699 30.3009 96.7589 29.8031 96.3539 29.3896C95.9404 28.9762 95.2569 28.5965 94.295 28.2421C91.6623 27.2632 90.3629 25.8457 90.3629 23.9809C90.3629 22.7573 90.827 21.7617 91.7467 20.9769C92.6665 20.2006 93.8815 19.804 95.4088 19.804C96.7589 19.804 97.8896 20.0319 98.784 20.5128L98.1765 22.4451C97.3327 21.9895 96.3792 21.7616 95.316 21.7616C94.4806 21.7616 93.814 21.9726 93.3415 22.3776C92.9449 22.7489 92.7508 23.1961 92.7508 23.7277C92.7508 24.3099 92.9787 24.8078 93.4343 25.1791C93.8309 25.5334 94.5566 25.9132 95.6029 26.3266C96.8855 26.8413 97.8221 27.4489 98.4212 28.1408C99.0287 28.8243 99.3241 29.6934 99.3241 30.7228Z" fill="black"></path><path d="M107.231 25.9553H104.598V31.1701C104.598 32.4864 105.062 33.153 105.99 33.153C106.412 33.153 106.766 33.1108 107.045 33.0433L107.112 34.8575C106.64 35.0262 106.024 35.119 105.256 35.119C104.311 35.119 103.585 34.8237 103.045 34.2499C102.514 33.6761 102.252 32.7058 102.252 31.3557V25.9469H100.691V24.1665H102.252V22.2004L104.589 21.4916V24.1665H107.222V25.9553" fill="black"></path><path d="M119.061 29.4403C119.061 31.0941 118.588 32.4442 117.651 33.4989C116.664 34.5874 115.356 35.1359 113.719 35.1359C112.15 35.1359 110.884 34.6128 109.947 33.5749C109.011 32.537 108.547 31.2122 108.547 29.6259C108.547 27.9636 109.028 26.6051 109.99 25.5419C110.96 24.4871 112.259 23.9471 113.888 23.9471C115.457 23.9471 116.732 24.4703 117.685 25.5166C118.613 26.5291 119.061 27.837 119.061 29.4403ZM116.597 29.4909C116.597 28.5036 116.386 27.6683 115.964 26.9595C115.457 26.0988 114.74 25.6769 113.821 25.6769C112.867 25.6769 112.124 26.0988 111.635 26.9595C111.205 27.6683 111.002 28.5205 111.002 29.5415C111.002 30.5288 111.213 31.3726 111.635 32.0729C112.15 32.9336 112.875 33.3555 113.804 33.3555C114.715 33.3555 115.424 32.9252 115.947 32.056C116.369 31.3304 116.597 30.4781 116.597 29.4909Z" fill="black"></path><path d="M126.824 26.2591C126.596 26.2169 126.343 26.2001 126.064 26.2001C125.229 26.2001 124.571 26.5123 124.115 27.1451C123.718 27.702 123.524 28.4192 123.524 29.2631V34.8997H121.136V27.5417C121.136 26.3013 121.119 25.1706 121.069 24.1665H123.145L123.237 26.2254H123.305C123.558 25.5166 123.946 24.9428 124.495 24.5209C125.026 24.1412 125.6 23.9471 126.216 23.9471C126.435 23.9471 126.638 23.964 126.807 23.9893L126.824 26.2591Z" fill="black"></path><path d="M137.489 29.0184C137.489 29.4403 137.455 29.8031 137.396 30.0984H130.241C130.275 31.1532 130.612 31.9717 131.279 32.5286C131.886 33.0264 132.663 33.2711 133.616 33.2711C134.671 33.2711 135.641 33.1024 136.51 32.7648L136.882 34.4187C135.861 34.8659 134.662 35.0853 133.287 35.0853C131.625 35.0853 130.317 34.5874 129.363 33.6171C128.418 32.6383 127.946 31.3219 127.946 29.6765C127.946 28.0649 128.393 26.7148 129.279 25.6347C130.207 24.4871 131.456 23.9133 133.025 23.9133C134.57 23.9133 135.751 24.4871 136.536 25.6347C137.169 26.5545 137.489 27.6767 137.489 29.0184ZM135.211 28.4024C135.228 27.6936 135.067 27.086 134.747 26.5713C134.333 25.9047 133.701 25.5756 132.848 25.5756C132.072 25.5756 131.439 25.8963 130.95 26.546C130.553 27.0607 130.317 27.6851 130.241 28.4024H135.211Z" fill="black"></path><path d="M55.3788 14.6821H54.13L53.4465 12.5389H51.0669L50.4088 14.6821H49.2021L51.5479 7.36638H52.9993L55.3788 14.6821ZM53.2355 11.6276L52.6195 9.71215C52.5605 9.51807 52.4339 9.05398 52.2483 8.32831H52.2314C52.147 8.64052 52.0458 9.09617 51.877 9.71215L51.2695 11.6276H53.2355Z" fill="black"></path><path d="M61.2685 9.39993L59.2687 14.6821H58.1296L56.1973 9.39993H57.4545L58.349 12.1929C58.5008 12.657 58.6274 13.1042 58.7287 13.5261H58.7624C58.8553 13.1464 58.9818 12.6992 59.1421 12.1929L60.0281 9.39993H61.2685Z" fill="black"></path><path d="M65.5213 14.6821L65.4285 14.0746H65.3947C65.0319 14.5556 64.5172 14.8003 63.8506 14.8003C62.9055 14.8003 62.2389 14.1337 62.2389 13.2477C62.2389 11.9482 63.3696 11.2732 65.3272 11.2732V11.1719C65.3272 10.48 64.9559 10.134 64.2303 10.134C63.7071 10.134 63.2515 10.2691 62.8464 10.5306L62.6017 9.76277C63.0827 9.459 63.6987 9.30711 64.4159 9.30711C65.7997 9.30711 66.4916 10.0328 66.4916 11.4926V13.4417C66.4916 13.9733 66.5085 14.3868 66.576 14.699L65.5213 14.6821ZM65.3609 12.0579C64.0615 12.0579 63.4033 12.3701 63.4033 13.1295C63.4033 13.6864 63.7324 13.9565 64.2134 13.9565C64.8041 13.9565 65.3609 13.5008 65.3609 12.8764V12.0579Z" fill="black"></path><path d="M69.1075 8.53927C68.7109 8.53927 68.4155 8.23549 68.4155 7.83047C68.4155 7.42544 68.7277 7.13855 69.1328 7.13855C69.5378 7.13855 69.8584 7.43388 69.85 7.83047C69.8416 8.25237 69.5378 8.53927 69.1075 8.53927ZM68.5421 9.39994H69.715V14.6737H68.5421V9.39994Z" fill="black"></path><path d="M71.7992 6.98666H72.9721V14.6737H71.7992V6.98666Z" fill="black"></path><path d="M77.9505 14.6821L77.8577 14.0746H77.8239C77.4611 14.5556 76.9464 14.8003 76.2798 14.8003C75.3347 14.8003 74.6681 14.1337 74.6681 13.2477C74.6681 11.9482 75.7988 11.2732 77.7564 11.2732V11.1719C77.7564 10.48 77.3851 10.134 76.6595 10.134C76.1363 10.134 75.6807 10.2691 75.2756 10.5306L75.0309 9.75433C75.5119 9.45056 76.1279 9.29868 76.8451 9.29868C78.2289 9.29868 78.9209 10.0243 78.9209 11.4841V13.4333C78.9209 13.9649 78.9377 14.3784 78.9883 14.6906H77.942L77.9505 14.6821ZM77.7902 12.0579C76.4907 12.0579 75.8325 12.3701 75.8325 13.1295C75.8325 13.6865 76.1616 13.9565 76.6426 13.9565C77.2332 13.9565 77.7902 13.5008 77.7902 12.8764V12.0579Z" fill="black"></path><path d="M83.68 14.8087C82.9374 14.8087 82.3805 14.4965 82.0177 13.8721H82.0008L81.9333 14.6906H80.9376C80.9714 14.2687 80.9798 13.7962 80.9798 13.273V6.9951H82.1611V10.1931H82.178C82.5324 9.61089 83.0893 9.31556 83.8572 9.31556C85.1313 9.31556 86.0173 10.4041 86.0173 11.9904C86.0089 13.6021 85.0216 14.8087 83.68 14.8087ZM83.4437 10.2184C82.7687 10.2184 82.1527 10.8006 82.1527 11.6191V12.5473C82.1527 13.273 82.7096 13.8637 83.4268 13.8637C84.3044 13.8637 84.8275 13.1464 84.8275 12.0073C84.8191 10.9441 84.2791 10.2184 83.4437 10.2184Z" fill="black"></path><path d="M87.7471 6.98666H88.92V14.6737H87.7471V6.98666Z" fill="black"></path><path d="M95.2991 12.3279H91.7805C91.7973 13.3236 92.4639 13.889 93.4428 13.889C93.9659 13.889 94.4385 13.7962 94.8604 13.6358L95.046 14.4543C94.5482 14.6737 93.9659 14.775 93.2824 14.775C91.6286 14.775 90.6498 13.7371 90.6498 12.117C90.6498 10.5053 91.6455 9.28181 93.1474 9.28181C94.4891 9.28181 95.3413 10.2775 95.3413 11.7879C95.3497 12.0073 95.3329 12.1845 95.2991 12.3279ZM94.2275 11.4926C94.2275 10.6741 93.814 10.1003 93.0715 10.1003C92.3964 10.1003 91.8733 10.6825 91.7889 11.4926H94.2275Z" fill="black"></path><path d="M102.404 14.8087C100.86 14.8087 99.864 13.6611 99.864 12.1001C99.864 10.4631 100.885 9.30711 102.497 9.30711C104.016 9.30711 105.037 10.4041 105.037 12.0073C105.037 13.6443 103.982 14.8087 102.404 14.8087ZM102.454 10.1594C101.611 10.1594 101.062 10.9525 101.062 12.0579C101.062 13.1464 101.619 13.9312 102.446 13.9312C103.273 13.9312 103.83 13.0874 103.83 12.0242C103.813 10.9525 103.281 10.1594 102.454 10.1594Z" fill="black"></path><path d="M111.331 14.6822H110.158V11.6445C110.158 10.7078 109.796 10.2437 109.087 10.2437C108.395 10.2437 107.914 10.8344 107.914 11.5348V14.6737H106.741V10.9104C106.741 10.4463 106.733 9.93998 106.699 9.39994H107.728L107.779 10.2184H107.813C108.125 9.65309 108.766 9.29025 109.483 9.29025C110.589 9.29025 111.314 10.1341 111.314 11.5179V14.6822" fill="black"></path><path d="M119.001 10.2859H117.71V12.8427C117.71 13.5008 117.938 13.8215 118.394 13.8215C118.596 13.8215 118.774 13.8046 118.917 13.7708L118.951 14.6568C118.723 14.7497 118.419 14.7918 118.04 14.7918C117.111 14.7918 116.571 14.2771 116.571 12.9439V10.2859H115.803V9.40839H116.571V8.43801L117.719 8.08362V9.39151H119.01V10.2775" fill="black"></path><path d="M125.212 14.6821H124.039V11.6698C124.039 10.7247 123.676 10.2522 122.967 10.2522C122.36 10.2522 121.794 10.6656 121.794 11.501V14.6737H120.622V6.98666H121.794V10.1509H121.811C122.183 9.57714 122.706 9.29025 123.398 9.29025C124.52 9.29025 125.203 10.1594 125.203 11.5348V14.6821" fill="black"></path><path d="M131.203 12.3279H127.684C127.701 13.3236 128.368 13.889 129.347 13.889C129.87 13.889 130.342 13.7962 130.764 13.6358L130.95 14.4543C130.452 14.6737 129.87 14.775 129.186 14.775C127.532 14.775 126.554 13.7371 126.554 12.117C126.554 10.5053 127.549 9.28181 129.051 9.28181C130.393 9.28181 131.245 10.2775 131.245 11.7879C131.254 12.0073 131.237 12.1845 131.203 12.3279ZM130.131 11.4926C130.131 10.6741 129.718 10.1003 128.975 10.1003C128.3 10.1003 127.769 10.6825 127.693 11.4926H130.131Z" fill="black"></path></g><defs><clipPath id="clip0"><rect width="151.884" height="45" fill="black"></rect></clipPath></defs></svg>