<svg xmlns="http://www.w3.org/2000/svg" width="152" height="45" viewBox="0 0 152 45" fill="none"><g clip-path="url(#clip0)"><path d="M146.257 -7.62939e-05H5.62072C2.52396 -7.62939e-05 -0.00744629 2.53133 -0.00744629 5.62809V39.3802C-0.00744629 42.477 2.52396 45.0084 5.62072 45.0084H146.257C149.354 45.0084 151.885 42.477 151.885 39.3802V5.62809C151.885 2.53133 149.354 -7.62939e-05 146.257 -7.62939e-05ZM146.257 0.902792C148.865 0.902792 150.983 3.02074 150.983 5.62809V39.3802C150.983 41.9875 148.865 44.1055 146.257 44.1055H5.62072C3.01337 44.1055 0.895416 41.9875 0.895416 39.3802V5.62809C0.895416 3.02074 3.01337 0.902792 5.62072 0.902792H146.257Z" fill="black"></path><path d="M53.3523 11.5236C53.3523 12.4687 53.0739 13.2197 52.517 13.7766C51.8841 14.4432 51.0572 14.7723 50.0362 14.7723C49.0574 14.7723 48.2305 14.4348 47.5554 13.7597C46.8719 13.0847 46.5344 12.2493 46.5344 11.2452C46.5344 10.2411 46.8719 9.4057 47.5554 8.73066C48.2389 8.05562 49.0658 7.71809 50.0362 7.71809C50.5172 7.71809 50.9813 7.81091 51.42 8.00499C51.8588 8.19062 52.2132 8.44377 52.4748 8.75597L51.8841 9.34663C51.4369 8.81504 50.8209 8.54502 50.0362 8.54502C49.3274 8.54502 48.7114 8.79816 48.1883 9.29601C47.6736 9.79385 47.412 10.4436 47.412 11.2452C47.412 12.0468 47.6736 12.6881 48.1883 13.1944C48.703 13.6922 49.319 13.9454 50.0362 13.9454C50.7872 13.9454 51.42 13.6922 51.9179 13.1944C52.247 12.8653 52.4326 12.4096 52.4832 11.8274H50.0362V11.0174H53.3102C53.3355 11.1946 53.3523 11.3633 53.3523 11.5236Z" fill="black"></path><path d="M53.3523 11.5236C53.3523 12.4687 53.0739 13.2197 52.517 13.7766C51.8841 14.4432 51.0572 14.7723 50.0362 14.7723C49.0574 14.7723 48.2305 14.4348 47.5554 13.7597C46.8719 13.0847 46.5344 12.2493 46.5344 11.2452C46.5344 10.2411 46.8719 9.4057 47.5554 8.73066C48.2389 8.05562 49.0658 7.71809 50.0362 7.71809C50.5172 7.71809 50.9813 7.81091 51.42 8.00499C51.8588 8.19062 52.2132 8.44377 52.4748 8.75597L51.8841 9.34663C51.4369 8.81504 50.8209 8.54502 50.0362 8.54502C49.3274 8.54502 48.7114 8.79816 48.1883 9.29601C47.6736 9.79385 47.412 10.4436 47.412 11.2452C47.412 12.0468 47.6736 12.6881 48.1883 13.1944C48.703 13.6922 49.319 13.9454 50.0362 13.9454C50.7872 13.9454 51.42 13.6922 51.9179 13.1944C52.247 12.8653 52.4326 12.4096 52.4832 11.8274H50.0362V11.0174H53.3102C53.3355 11.1946 53.3523 11.3633 53.3523 11.5236Z" fill="black" stroke="black" stroke-width="0.2667" stroke-miterlimit="13.3333"></path><path d="M58.5327 8.70188H55.4613V10.8451H58.2374V11.6552H55.4613V13.7985H58.5327V14.6254H54.5922V7.87495H58.5327V8.70188Z" fill="black"></path><path d="M58.5327 8.70188H55.4613V10.8451H58.2374V11.6552H55.4613V13.7985H58.5327V14.6254H54.5922V7.87495H58.5327V8.70188Z" fill="black" stroke="black" stroke-width="0.2667" stroke-miterlimit="13.3333"></path><path d="M62.1956 14.6231H61.3265V8.69961H59.4364V7.87268H64.0773V8.69961H62.1956V14.6231Z" fill="black"></path><path d="M62.1956 14.6231H61.3265V8.69961H59.4364V7.87268H64.0773V8.69961H62.1956V14.6231Z" fill="black" stroke="black" stroke-width="0.2667" stroke-miterlimit="13.3333"></path><path d="M67.4366 7.87268H68.3058V14.6231H67.4366V7.87268Z" fill="black" stroke="black" stroke-width="0.2667" stroke-miterlimit="13.3333"></path><path d="M72.1522 14.6231H71.2831V8.69961H69.3929V7.87268H74.0339V8.69961H72.1522V14.6231Z" fill="black"></path><path d="M72.1522 14.6231H71.2831V8.69961H69.3929V7.87268H74.0339V8.69961H72.1522V14.6231Z" fill="black" stroke="black" stroke-width="0.2667" stroke-miterlimit="13.3333"></path><path d="M78.5068 13.1868C79.0047 13.6931 79.6207 13.9462 80.3379 13.9462C81.0636 13.9462 81.6711 13.6931 82.169 13.1868C82.6668 12.6805 82.9199 12.0308 82.9199 11.246C82.9199 10.4613 82.6668 9.81158 82.169 9.3053C81.6711 8.79902 81.0551 8.54587 80.3379 8.54587C79.6122 8.54587 79.0047 8.79902 78.5068 9.3053C78.009 9.81158 77.7559 10.4613 77.7559 11.246C77.7559 12.0392 78.009 12.6805 78.5068 13.1868ZM82.8187 13.7521C82.1521 14.4356 81.3336 14.7731 80.3463 14.7731C79.3591 14.7731 78.5322 14.4356 77.874 13.7521C77.2074 13.0687 76.8783 12.2333 76.8783 11.246C76.8783 10.2588 77.2074 9.42343 77.874 8.73995C78.5406 8.05647 79.3591 7.71895 80.3463 7.71895C81.3251 7.71895 82.1521 8.06491 82.8187 8.74839C83.4853 9.43187 83.8144 10.2672 83.8144 11.246C83.8059 12.2333 83.4768 13.0687 82.8187 13.7521Z" fill="black"></path><path d="M78.5068 13.1868C79.0047 13.6931 79.6207 13.9462 80.3379 13.9462C81.0636 13.9462 81.6711 13.6931 82.169 13.1868C82.6668 12.6805 82.9199 12.0308 82.9199 11.246C82.9199 10.4613 82.6668 9.81158 82.169 9.3053C81.6711 8.79902 81.0551 8.54587 80.3379 8.54587C79.6122 8.54587 79.0047 8.79902 78.5068 9.3053C78.009 9.81158 77.7559 10.4613 77.7559 11.246C77.7559 12.0392 78.009 12.6805 78.5068 13.1868ZM82.8187 13.7521C82.1521 14.4356 81.3336 14.7731 80.3463 14.7731C79.3591 14.7731 78.5322 14.4356 77.874 13.7521C77.2074 13.0687 76.8783 12.2333 76.8783 11.246C76.8783 10.2588 77.2074 9.42343 77.874 8.73995C78.5406 8.05647 79.3591 7.71895 80.3463 7.71895C81.3251 7.71895 82.1521 8.06491 82.8187 8.74839C83.4853 9.43187 83.8144 10.2672 83.8144 11.246C83.8059 12.2333 83.4768 13.0687 82.8187 13.7521Z" fill="black" stroke="black" stroke-width="0.2667" stroke-miterlimit="13.3333"></path><path d="M85.0259 14.6231V7.87268H86.0806L89.363 13.1211H89.4052L89.363 11.8217V7.87268H90.2321V14.6231H89.3293L85.895 9.11307H85.8612L85.895 10.4125V14.6147H85.0259V14.6231Z" fill="black"></path><path d="M85.0259 14.6231V7.87268H86.0806L89.363 13.1211H89.4052L89.363 11.8217V7.87268H90.2321V14.6231H89.3293L85.895 9.11307H85.8612L85.895 10.4125V14.6147H85.0259V14.6231Z" fill="black" stroke="black" stroke-width="0.2667" stroke-miterlimit="13.3333"></path><path d="M120.309 33.7521H122.41V19.6859H120.309V33.7521ZM139.219 24.7572L136.814 30.8579H136.738L134.241 24.7572H131.979L135.726 33.2796L133.591 38.0218H135.776L141.548 24.7572H139.219ZM127.313 32.1573C126.621 32.1573 125.667 31.8114 125.667 30.9591C125.667 29.8706 126.857 29.4572 127.895 29.4572C128.815 29.4572 129.254 29.6597 129.811 29.9297C129.65 31.2291 128.528 32.1573 127.313 32.1573ZM127.566 24.445C126.047 24.445 124.469 25.1116 123.82 26.5967L125.684 27.373C126.081 26.5967 126.823 26.3435 127.6 26.3435C128.688 26.3435 129.785 26.9932 129.811 28.1577V28.3011C129.431 28.0818 128.621 27.7611 127.625 27.7611C125.617 27.7611 123.575 28.8665 123.575 30.9254C123.575 32.8071 125.22 34.0221 127.068 34.0221C128.477 34.0221 129.262 33.3893 129.743 32.6467H129.819V33.7352H131.844V28.3433C131.836 25.8372 129.971 24.445 127.566 24.445ZM114.597 26.4701H111.61V21.652H114.597C116.166 21.652 117.061 22.9514 117.061 24.0653C117.052 25.1453 116.166 26.4701 114.597 26.4701ZM114.538 19.6859H109.509V33.7521H111.61V28.4277H114.538C116.867 28.4277 119.153 26.7401 119.153 24.0568C119.153 21.3735 116.867 19.6859 114.538 19.6859ZM87.1057 32.1573C85.6544 32.1573 84.4393 30.9422 84.4393 29.28C84.4393 27.5924 85.6544 26.3604 87.1057 26.3604C88.5402 26.3604 89.6624 27.5924 89.6624 29.28C89.6624 30.9422 88.5402 32.1573 87.1057 32.1573ZM89.519 25.5419H89.443C88.9705 24.9766 88.0676 24.4703 86.9201 24.4703C84.5237 24.4703 82.3382 26.5713 82.3382 29.2715C82.3382 31.9548 84.5321 34.039 86.9201 34.039C88.0592 34.039 88.9705 33.5327 89.443 32.9505H89.519V33.6424C89.519 35.4735 88.5402 36.4523 86.9623 36.4523C85.6712 36.4523 84.8781 35.5241 84.549 34.7478L82.7179 35.5072C83.2411 36.7729 84.6418 38.334 86.9623 38.334C89.4262 38.334 91.5104 36.8826 91.5104 33.3471V24.7656H89.519V25.5419ZM92.9617 33.7521H95.0628V19.6859H92.9617V33.7521ZM98.168 29.1112C98.1173 27.2633 99.6024 26.3182 100.666 26.3182C101.501 26.3182 102.21 26.7317 102.446 27.3308L98.168 29.1112ZM104.691 27.5164C104.294 26.4448 103.079 24.4703 100.598 24.4703C98.1342 24.4703 96.0838 26.411 96.0838 29.2546C96.0838 31.9379 98.1173 34.039 100.834 34.039C103.028 34.039 104.294 32.6974 104.826 31.9211L103.197 30.8326C102.657 31.6342 101.906 32.1573 100.843 32.1573C99.7712 32.1573 99.0118 31.6679 98.5224 30.706L104.918 28.0564L104.691 27.5164ZM53.7164 25.9385V27.9721H58.5767C58.4333 29.1112 58.0536 29.9466 57.4714 30.5288C56.7626 31.2376 55.6572 32.0139 53.7164 32.0139C50.7209 32.0139 48.3836 29.6006 48.3836 26.6135C48.3836 23.618 50.7209 21.2132 53.7164 21.2132C55.3281 21.2132 56.5094 21.8461 57.3785 22.6645L58.813 21.2301C57.5979 20.0741 55.9863 19.1796 53.7164 19.1796C49.624 19.1796 46.1729 22.5127 46.1729 26.6135C46.1729 30.7144 49.6156 34.0474 53.7164 34.0474C55.9272 34.0474 57.5979 33.3218 58.8974 31.9632C60.239 30.6216 60.6525 28.7399 60.6525 27.2126C60.6525 26.7401 60.6187 26.3098 60.5428 25.9469L53.7164 25.9385ZM66.1794 32.1573C64.7281 32.1573 63.4792 30.9591 63.4792 29.2546C63.4792 27.5333 64.7281 26.352 66.1794 26.352C67.6307 26.352 68.8796 27.5333 68.8796 29.2546C68.8796 30.9591 67.6307 32.1573 66.1794 32.1573ZM66.1794 24.4703C63.5299 24.4703 61.3782 26.4785 61.3782 29.2546C61.3782 32.0139 63.5383 34.039 66.1794 34.039C68.8289 34.039 70.9806 32.0054 70.9806 29.2546C70.9806 26.487 68.8289 24.4703 66.1794 24.4703ZM76.6594 32.1573C75.2081 32.1573 73.9593 30.9591 73.9593 29.2546C73.9593 27.5333 75.2081 26.352 76.6594 26.352C78.1108 26.352 79.3596 27.5333 79.3596 29.2546C79.3596 30.9591 78.1108 32.1573 76.6594 32.1573ZM76.6594 24.4703C74.0099 24.4703 71.8582 26.4785 71.8582 29.2546C71.8582 32.0139 74.0183 34.039 76.6594 34.039C79.3005 34.039 81.4607 32.0054 81.4607 29.2546C81.4607 26.487 79.3005 24.4703 76.6594 24.4703Z" fill="black"></path><path d="M15.1885 8.45491C14.5303 8.033 13.7456 7.898 13.0031 8.07519L26.0145 21.0866L30.2335 16.8676L15.1885 8.45491Z" fill="black"></path><path d="M11.3829 9.13838C11.02 9.61935 10.8091 10.21 10.8091 10.8429V34.0137C10.8091 34.6381 11.02 35.2288 11.3829 35.7182L24.6728 22.4283L11.3829 9.13838Z" fill="black"></path><path d="M35.7266 19.9475L31.9379 17.8296L27.3477 22.4198L31.9379 27.0101L35.7266 24.8922C36.6379 24.3859 37.178 23.4577 37.178 22.4198C37.178 21.382 36.6379 20.4622 35.7266 19.9475Z" fill="black"></path><path d="M26.0061 23.7615L13.0031 36.7645C13.214 36.8151 13.4334 36.8404 13.6528 36.8404C14.1928 36.8404 14.7244 36.6885 15.1885 36.3848L30.2251 27.9721L26.0061 23.7615Z" fill="black"></path></g><defs><clipPath id="clip0"><rect width="151.884" height="45" fill="black"></rect></clipPath></defs></svg>